<svg width="128" height="128" viewBox="0 0 128 128" fill="none" xmlns="http://www.w3.org/2000/svg">
  <defs>
    <linearGradient id="design_bg" x1="24" y1="16" x2="112" y2="120" gradientUnits="userSpaceOnUse">
      <stop stop-color="#B993FF" />
      <stop offset="1" stop-color="#6A4CFF" />
    </linearGradient>
    <linearGradient id="design_corner" x1="80" y1="12" x2="112" y2="44" gradientUnits="userSpaceOnUse">
      <stop stop-color="#E5D4FF" />
      <stop offset="1" stop-color="#8B6AFF" />
    </linearGradient>
    <linearGradient id="design_shape" x1="64" y1="48" x2="96" y2="96" gradientUnits="userSpaceOnUse">
      <stop stop-color="#FFE7FF" />
      <stop offset="1" stop-color="#F3D9FF" />
    </linearGradient>
  </defs>
  <path d="M40 16h38l24 24v60a18 18 0 0 1-18 18H40a18 18 0 0 1-18-18V34a18 18 0 0 1 18-18z" fill="url(#design_bg)"/>
  <path d="M78 16v18a8 8 0 0 0 8 8h18L78 16z" fill="url(#design_corner)"/>
  <path d="M48 92h32c8.837 0 16-7.163 16-16s-7.163-16-16-16h-8c-8.837 0-16-7.163-16-16s7.163-16 16-16h20" stroke="url(#design_shape)" stroke-width="10" stroke-linecap="round" stroke-linejoin="round"/>
  <circle cx="52" cy="92" r="6" fill="#FFEFFF"/>
</svg>
