<svg width="128" height="128" viewBox="0 0 128 128" fill="none" xmlns="http://www.w3.org/2000/svg">
  <defs>
    <linearGradient id="pdf_bg" x1="36" y1="12" x2="104" y2="120" gradientUnits="userSpaceOnUse">
      <stop stop-color="#FF7A7A" />
      <stop offset="1" stop-color="#D7263D" />
    </linearGradient>
    <linearGradient id="pdf_corner" x1="80" y1="12" x2="112" y2="44" gradientUnits="userSpaceOnUse">
      <stop stop-color="#FFB1B1" />
      <stop offset="1" stop-color="#FF6B6B" />
    </linearGradient>
  </defs>
  <path d="M44 16h34l24 24v60a18 18 0 0 1-18 18H44a18 18 0 0 1-18-18V34a18 18 0 0 1 18-18z" fill="url(#pdf_bg)"/>
  <path d="M78 16v18a8 8 0 0 0 8 8h18L78 16z" fill="url(#pdf_corner)"/>
  <path d="M48 92V52h20c6.075 0 11 4.925 11 11s-4.925 11-11 11h-8v18h-12zm20-28c2.209 0 4-1.791 4-4s-1.791-4-4-4h-8v8h8zm32-12h-14v12h8v8h-8v20h-12V52h26v12z" fill="#FFF5F5"/>
</svg>
