<svg width="128" height="128" viewBox="0 0 128 128" fill="none" xmlns="http://www.w3.org/2000/svg">
  <defs>
    <linearGradient id="word_bg" x1="36" y1="12" x2="104" y2="120" gradientUnits="userSpaceOnUse">
      <stop stop-color="#5AA9FF" />
      <stop offset="1" stop-color="#1E63D6" />
    </linearGradient>
    <linearGradient id="word_corner" x1="80" y1="12" x2="112" y2="44" gradientUnits="userSpaceOnUse">
      <stop stop-color="#A7C9FF" />
      <stop offset="1" stop-color="#4D8BFF" />
    </linearGradient>
  </defs>
  <path d="M44 16h34l24 24v60a18 18 0 0 1-18 18H44a18 18 0 0 1-18-18V34a18 18 0 0 1 18-18z" fill="url(#word_bg)"/>
  <path d="M78 16v18a8 8 0 0 0 8 8h18L78 16z" fill="url(#word_corner)"/>
  <path d="M40 92l10-40h10l8 26 8-26h10l10 40H86l-5.4-22.8-7.8 22.8h-8.6l-7.6-22.8L60 92H40z" fill="#F5F9FF"/>
</svg>
