<svg width="128" height="128" viewBox="0 0 128 128" fill="none" xmlns="http://www.w3.org/2000/svg">
  <defs>
    <linearGradient id="ws_design_bg" x1="32" y1="12" x2="112" y2="118" gradientUnits="userSpaceOnUse">
      <stop stop-color="#C9A7FF" />
      <stop offset="1" stop-color="#6E5BFF" />
    </linearGradient>
    <linearGradient id="ws_design_corner" x1="84" y1="12" x2="116" y2="44" gradientUnits="userSpaceOnUse">
      <stop stop-color="#E9DAFF" />
      <stop offset="1" stop-color="#9078FF" />
    </linearGradient>
    <linearGradient id="ws_design_shape" x1="64" y1="48" x2="100" y2="100" gradientUnits="userSpaceOnUse">
      <stop stop-color="#FFF2FF" />
      <stop offset="1" stop-color="#F6E8FF" />
    </linearGradient>
  </defs>
  <path d="M44 16h36l24 24v60a20 20 0 0 1-20 20H44a20 20 0 0 1-20-20V36a20 20 0 0 1 20-20z" fill="url(#ws_design_bg)"/>
  <path d="M80 16v18a10 10 0 0 0 10 10h18L80 16z" fill="url(#ws_design_corner)"/>
  <path d="M50 94h32c9.389 0 17-7.611 17-17s-7.611-17-17-17h-8c-8.837 0-16-7.163-16-16s7.163-16 16-16h18" stroke="url(#ws_design_shape)" stroke-width="10" stroke-linecap="round" stroke-linejoin="round"/>
  <circle cx="54" cy="94" r="6" fill="#FFF4FF"/>
</svg>
