<svg width="128" height="128" viewBox="0 0 128 128" fill="none" xmlns="http://www.w3.org/2000/svg">
  <defs>
    <linearGradient id="ws_ppt_bg" x1="40" y1="12" x2="108" y2="120" gradientUnits="userSpaceOnUse">
      <stop stop-color="#FFA45C" />
      <stop offset="1" stop-color="#FF5E3A" />
    </linearGradient>
    <linearGradient id="ws_ppt_corner" x1="84" y1="12" x2="116" y2="44" gradientUnits="userSpaceOnUse">
      <stop stop-color="#FFD1A3" />
      <stop offset="1" stop-color="#FF7A4D" />
    </linearGradient>
  </defs>
  <path d="M48 16h34l24 24v60a20 20 0 0 1-20 20H48a20 20 0 0 1-20-20V36a20 20 0 0 1 20-20z" fill="url(#ws_ppt_bg)"/>
  <path d="M82 16v18a10 10 0 0 0 10 10h18L82 16z" fill="url(#ws_ppt_corner)"/>
  <path d="M50 92V50h20c8.837 0 16 7.163 16 16s-7.163 16-16 16h-8v10H50zm20-20c3.866 0 7-3.134 7-7s-3.134-7-7-7h-8v14h8z" fill="#FFF3EB"/>
</svg>
