<svg width="128" height="128" viewBox="0 0 128 128" fill="none" xmlns="http://www.w3.org/2000/svg">
  <defs>
    <linearGradient id="ws_text_bg" x1="40" y1="12" x2="108" y2="120" gradientUnits="userSpaceOnUse">
      <stop stop-color="#F0F4FF" />
      <stop offset="1" stop-color="#CBD6EE" />
    </linearGradient>
    <linearGradient id="ws_text_corner" x1="84" y1="12" x2="116" y2="44" gradientUnits="userSpaceOnUse">
      <stop stop-color="#FFFFFF" />
      <stop offset="1" stop-color="#DFE8F7" />
    </linearGradient>
  </defs>
  <path d="M48 16h34l24 24v60a20 20 0 0 1-20 20H48a20 20 0 0 1-20-20V36a20 20 0 0 1 20-20z" fill="url(#ws_text_bg)"/>
  <path d="M82 16v18a10 10 0 0 0 10 10h18L82 16z" fill="url(#ws_text_corner)"/>
  <path d="M50 56h36M50 68h36M50 80h28M50 92h20" stroke="#48526C" stroke-opacity=".32" stroke-width="6" stroke-linecap="round"/>
</svg>
