<svg width="128" height="128" viewBox="0 0 128 128" fill="none" xmlns="http://www.w3.org/2000/svg">
  <defs>
    <linearGradient id="ws_word_bg" x1="40" y1="12" x2="108" y2="120" gradientUnits="userSpaceOnUse">
      <stop stop-color="#4A90FF" />
      <stop offset="1" stop-color="#1657D8" />
    </linearGradient>
    <linearGradient id="ws_word_corner" x1="84" y1="12" x2="116" y2="44" gradientUnits="userSpaceOnUse">
      <stop stop-color="#9CC0FF" />
      <stop offset="1" stop-color="#3E82FF" />
    </linearGradient>
  </defs>
  <path d="M48 16h34l24 24v60a20 20 0 0 1-20 20H48a20 20 0 0 1-20-20V36a20 20 0 0 1 20-20z" fill="url(#ws_word_bg)"/>
  <path d="M82 16v18a10 10 0 0 0 10 10h18L82 16z" fill="url(#ws_word_corner)"/>
  <path d="M44 92l11-42h11l8 26 8-26h11l11 42H90l-5.4-21.4-7.6 21.4h-8l-7.6-21.4L60 92H44z" fill="#F3F8FF"/>
</svg>
