<svg width="80" height="80" viewBox="0 0 80 80" fill="none" xmlns="http://www.w3.org/2000/svg">
  <defs>
    <linearGradient id="dashboard-base" x1="18" y1="12" x2="64" y2="68" gradientUnits="userSpaceOnUse">
      <stop offset="0" stop-color="#34D399" />
      <stop offset="1" stop-color="#14B8A6" />
    </linearGradient>
    <linearGradient id="dashboard-card" x1="28" y1="26" x2="58" y2="58" gradientUnits="userSpaceOnUse">
      <stop offset="0" stop-color="#ECFDF5" stop-opacity="0.92" />
      <stop offset="1" stop-color="#D1FAE5" stop-opacity="0.45" />
    </linearGradient>
    <linearGradient id="dashboard-bars" x1="32" y1="34" x2="52" y2="52" gradientUnits="userSpaceOnUse">
      <stop offset="0" stop-color="#059669" />
      <stop offset="1" stop-color="#047857" />
    </linearGradient>
  </defs>
  <rect x="6" y="6" width="68" height="68" rx="22" fill="url(#dashboard-base)" />
  <rect x="6" y="6" width="68" height="68" rx="22" stroke="white" stroke-opacity="0.28" stroke-width="1.4" />
  <rect x="24" y="24" width="32" height="30" rx="12" fill="url(#dashboard-card)" />
  <path d="M29 40H51" stroke="#0F172A" stroke-opacity="0.08" stroke-width="2" />
  <rect x="32" y="36" width="4.5" height="11" rx="2.2" fill="url(#dashboard-bars)" fill-opacity="0.7" />
  <rect x="38.5" y="32" width="4.5" height="15" rx="2.2" fill="url(#dashboard-bars)" />
  <rect x="45" y="37" width="4.5" height="10" rx="2.2" fill="url(#dashboard-bars)" fill-opacity="0.6" />
  <path d="M32 33C32 31.8954 32.8954 31 34 31H46C47.1046 31 48 31.8954 48 33V34H32V33Z" fill="#2DD4BF" fill-opacity="0.45" />
  <circle cx="34" cy="32.5" r="1.6" fill="#10B981" fill-opacity="0.8" />
  <circle cx="38" cy="32.5" r="1.6" fill="#34D399" fill-opacity="0.75" />
  <circle cx="42" cy="32.5" r="1.6" fill="#6EE7B7" fill-opacity="0.65" />
</svg>
