<svg width="80" height="80" viewBox="0 0 80 80" fill="none" xmlns="http://www.w3.org/2000/svg">
  <defs>
    <linearGradient id="home-base" x1="18" y1="12" x2="62" y2="68" gradientUnits="userSpaceOnUse">
      <stop offset="0" stop-color="#6EE7FF" />
      <stop offset="1" stop-color="#2563EB" />
    </linearGradient>
    <linearGradient id="home-light" x1="22" y1="18" x2="58" y2="62" gradientUnits="userSpaceOnUse">
      <stop offset="0" stop-color="#FFFFFF" stop-opacity="0.9" />
      <stop offset="1" stop-color="#FFFFFF" stop-opacity="0.25" />
    </linearGradient>
    <linearGradient id="home-shadow" x1="40" y1="26" x2="40" y2="60" gradientUnits="userSpaceOnUse">
      <stop offset="0" stop-color="#0F172A" stop-opacity="0.35" />
      <stop offset="1" stop-color="#0F172A" stop-opacity="0.05" />
    </linearGradient>
  </defs>
  <rect x="6" y="6" width="68" height="68" rx="22" fill="url(#home-base)" />
  <rect x="6" y="6" width="68" height="68" rx="22" stroke="white" stroke-opacity="0.28" stroke-width="1.4" />
  <path
    d="M40 20L19 37.6L23.6 43.2H26.4V56H35.8V45.6C35.8 43.6118 37.4118 42 39.4 42H40.6C42.5882 42 44.2 43.6118 44.2 45.6V56H53.6V43.2H56.4L61 37.6L40 20Z"
    fill="url(#home-light)"
  />
  <path
    d="M39.8 24L24.2 37.2L27 41H32V54.4H35V46.2C35 43.8783 36.8783 42 39.2 42H40.8C43.1217 42 45 43.8783 45 46.2V54.4H48V41H53L55.8 37.2L39.8 24Z"
    fill="url(#home-shadow)"
  />
  <path d="M40 18L17 37L20.8 41.4L40 26.2L59.2 41.4L63 37L40 18Z" fill="white" fill-opacity="0.35" />
  <rect x="33.5" y="46" width="13" height="15" rx="3.5" fill="#2563EB" fill-opacity="0.22" />
  <rect x="34.5" y="47" width="11" height="13" rx="3" fill="#DBEAFE" fill-opacity="0.75" />
</svg>
