<svg width="80" height="80" viewBox="0 0 80 80" fill="none" xmlns="http://www.w3.org/2000/svg">
  <defs>
    <linearGradient id="stage-manager-base" x1="18" y1="12" x2="62" y2="68" gradientUnits="userSpaceOnUse">
      <stop offset="0" stop-color="#C7D7FF" />
      <stop offset="1" stop-color="#5A6AB8" />
    </linearGradient>
    <linearGradient id="stage-manager-window" x1="40" y1="22" x2="40" y2="60" gradientUnits="userSpaceOnUse">
      <stop offset="0" stop-color="#FFFFFF" stop-opacity="0.92" />
      <stop offset="1" stop-color="#FFFFFF" stop-opacity="0.12" />
    </linearGradient>
    <linearGradient id="stage-manager-shadow" x1="40" y1="30" x2="40" y2="64" gradientUnits="userSpaceOnUse">
      <stop offset="0" stop-color="#0F172A" stop-opacity="0.16" />
      <stop offset="1" stop-color="#0F172A" stop-opacity="0.0" />
    </linearGradient>
  </defs>
  <rect x="6" y="6" width="68" height="68" rx="22" fill="url(#stage-manager-base)" />
  <rect x="6" y="6" width="68" height="68" rx="22" stroke="white" stroke-opacity="0.15" stroke-width="1.5" />
  <rect x="20" y="24" width="40" height="30" rx="10" fill="#0F172A" fill-opacity="0.12" />
  <rect x="20" y="22" width="40" height="28" rx="10" fill="url(#stage-manager-window)" />
  <rect x="24" y="30" width="32" height="16" rx="6" fill="url(#stage-manager-shadow)" />
  <rect x="28" y="34" width="24" height="18" rx="6" fill="#0F172A" fill-opacity="0.08" />
  <rect x="24" y="28" width="32" height="18" rx="6" fill="#FFFFFF" fill-opacity="0.8" />
  <rect x="28" y="32" width="24" height="10" rx="4" fill="#E5ECFF" />
  <rect x="30" y="34" width="20" height="3.5" rx="1.75" fill="#A3B6FF" />
  <rect x="30" y="39" width="12" height="3" rx="1.5" fill="#D6E0FF" />
  <circle cx="28" cy="26" r="1.8" fill="#FF6B6B" />
  <circle cx="32.5" cy="26" r="1.8" fill="#FBCB4A" />
  <circle cx="37" cy="26" r="1.8" fill="#45D483" />
  <path d="M36 48C36 44.6863 38.6863 42 42 42H56C59.3137 42 62 44.6863 62 48V56C62 59.3137 59.3137 62 56 62H42C38.6863 62 36 59.3137 36 56V48Z" fill="#0F172A" fill-opacity="0.08" />
  <path d="M34 46C34 42.6863 36.6863 40 40 40H54C57.3137 40 60 42.6863 60 46V54C60 57.3137 57.3137 60 54 60H40C36.6863 60 34 57.3137 34 54V46Z" fill="url(#stage-manager-window)" />
  <path d="M38 48C38 46.8954 38.8954 46 40 46H51C52.1046 46 53 46.8954 53 48V54C53 55.1046 52.1046 56 51 56H40C38.8954 56 38 55.1046 38 54V48Z" fill="#EEF2FF" />
  <rect x="42" y="50" width="7" height="2.6" rx="1.3" fill="#9BA4F5" />
  <rect x="20" y="22" width="40" height="6" rx="3" fill="#FFFFFF" fill-opacity="0.6" />
</svg>
