<svg width="80" height="80" viewBox="0 0 80 80" fill="none" xmlns="http://www.w3.org/2000/svg">
  <defs>
    <linearGradient id="theme-gradient" x1="24" y1="12" x2="56" y2="68" gradientUnits="userSpaceOnUse">
      <stop offset="0" stop-color="#22D3EE" />
      <stop offset="1" stop-color="#3B82F6" />
    </linearGradient>
    <linearGradient id="theme-sun" x1="32" y1="24" x2="44" y2="44" gradientUnits="userSpaceOnUse">
      <stop offset="0" stop-color="#FDE68A" />
      <stop offset="1" stop-color="#FBBF24" />
    </linearGradient>
    <linearGradient id="theme-moon" x1="44" y1="28" x2="52" y2="52" gradientUnits="userSpaceOnUse">
      <stop offset="0" stop-color="#E0E7FF" />
      <stop offset="1" stop-color="#A5B4FC" />
    </linearGradient>
  </defs>
  <rect x="6" y="6" width="68" height="68" rx="22" fill="url(#theme-gradient)" />
  <rect x="6" y="6" width="68" height="68" rx="22" stroke="white" stroke-opacity="0.32" stroke-width="1.5" />
  <circle cx="36" cy="36" r="10" fill="url(#theme-sun)" />
  <path d="M36 24C29.3726 24 24 29.3726 24 36C24 42.6274 29.3726 48 36 48C30.4772 44.4857 30.4772 27.5143 36 24Z" fill="#F8FAFC" fill-opacity="0.6" />
  <path d="M44.5 30C46.9853 30 49 32.0147 49 34.5C49 39.1944 45.1944 43 40.5 43C38.0147 43 36 40.9853 36 38.5C36 33.8056 39.8056 30 44.5 30Z" fill="url(#theme-moon)" />
  <circle cx="36" cy="36" r="14" stroke="#FFFFFF" stroke-opacity="0.3" stroke-width="2" stroke-dasharray="6 6" />
</svg>
