<svg width="80" height="80" viewBox="0 0 80 80" fill="none" xmlns="http://www.w3.org/2000/svg">
  <defs>
    <linearGradient id="tools-base" x1="18" y1="10" x2="62" y2="70" gradientUnits="userSpaceOnUse">
      <stop offset="0" stop-color="#38BDF8" />
      <stop offset="1" stop-color="#0EA5E9" />
    </linearGradient>
    <linearGradient id="tools-body" x1="30" y1="28" x2="54" y2="58" gradientUnits="userSpaceOnUse">
      <stop offset="0" stop-color="#FFFFFF" stop-opacity="0.92" />
      <stop offset="1" stop-color="#E0F2FE" stop-opacity="0.4" />
    </linearGradient>
    <linearGradient id="tools-handle" x1="40" y1="22" x2="58" y2="42" gradientUnits="userSpaceOnUse">
      <stop offset="0" stop-color="#F8FAFC" stop-opacity="0.85" />
      <stop offset="1" stop-color="#C4B5FD" stop-opacity="0.45" />
    </linearGradient>
  </defs>
  <rect x="6" y="6" width="68" height="68" rx="22" fill="url(#tools-base)" />
  <rect x="6" y="6" width="68" height="68" rx="22" stroke="white" stroke-opacity="0.28" stroke-width="1.4" />
  <path
    d="M45.6 22C45.6 22 50.6 22 52.9 24.3C56.6 28 53.1 33.1 53.1 33.1L48.4 31.5L44.1 35.8L45.9 37.6C48.2 39.9 48.2 43.6 45.9 45.9L40.4 51.4C38.1 53.7 34.4 53.7 32.1 51.4C29.8 49.1 29.8 45.4 32.1 43.1L33.9 41.3L38.2 45.6L40.7 43.1L36.4 38.8L39.8 35.4C42.1 33.1 45.8 33.1 48.1 35.4L49.9 37.2L53.1 33.1C53.1 33.1 56.8 29.4 53.1 25.7C51 23.6 48.3 23 45.6 22Z"
    fill="url(#tools-handle)"
  />
  <path
    d="M29.8 41.2L26.7 44.3C24.4 46.6 24.4 50.3 26.7 52.6C29 54.9 32.7 54.9 35 52.6L38.1 49.5L29.8 41.2Z"
    fill="url(#tools-body)"
  />
  <path d="M34.2 36.8L45.2 47.8" stroke="white" stroke-width="2.2" stroke-linecap="round" stroke-opacity="0.45" />
  <circle cx="30.8" cy="47.8" r="3" fill="#0284C7" fill-opacity="0.55" />
</svg>
